# Blender 4.4.0
# www.blender.org
mtllib Table.mtl
o Cube
v -0.795880 -0.021550 -0.507240
v -0.795880 0.021550 -0.507240
v -0.795880 -0.021550 0.507240
v -0.795880 0.021550 0.507240
v 0.795880 -0.021550 -0.507240
v 0.795880 0.021550 -0.507240
v 0.795880 -0.021550 0.507240
v 0.795880 0.021550 0.507240
v -0.761175 0.021550 -0.507240
v 0.761175 0.021550 -0.507240
v -0.761175 -0.021550 0.507240
v 0.761175 -0.021550 0.507240
v -0.761175 0.021550 0.507240
v 0.761175 0.021550 0.507240
v 0.761175 -0.021550 -0.507240
v -0.761175 -0.021550 -0.507240
v 0.795880 0.021550 0.473623
v 0.795880 0.021550 -0.473623
v -0.795880 -0.021550 -0.473623
v -0.795880 -0.021550 0.473623
v 0.795880 -0.021550 -0.473623
v 0.795880 -0.021550 0.473623
v -0.795880 0.021550 -0.473623
v -0.795880 0.021550 0.473623
v -0.761175 0.021550 -0.473623
v -0.761175 0.021550 0.473623
v 0.761175 0.021550 -0.473623
v 0.761175 0.021550 0.473623
v 0.761175 -0.021550 -0.473623
v 0.761175 -0.021550 0.473623
v -0.761175 -0.021550 0.473623
v -0.761175 -0.021550 -0.473623
v -0.776807 -0.021759 0.476889
v -0.774258 -0.021755 0.477464
v -0.771884 -0.021741 0.478557
v -0.769789 -0.021719 0.480119
v -0.768065 -0.021690 0.482083
v -0.766787 -0.021654 0.484362
v -0.766011 -0.021614 0.486857
v -0.765770 -0.021572 0.489459
v -0.766076 -0.021528 0.492054
v -0.766915 -0.021485 0.494528
v -0.768250 -0.021445 0.496774
v -0.770022 -0.021410 0.498694
v -0.772156 -0.021380 0.500203
v -0.774556 -0.021358 0.501236
v -0.777119 -0.021345 0.501747
v -0.779732 -0.021340 0.501714
v -0.782281 -0.021345 0.501138
v -0.784655 -0.021358 0.500046
v -0.786749 -0.021380 0.498483
v -0.788473 -0.021410 0.496520
v -0.789752 -0.021445 0.494241
v -0.790528 -0.021485 0.491746
v -0.790768 -0.021528 0.489144
v -0.790463 -0.021572 0.486549
v -0.789624 -0.021614 0.484075
v -0.788289 -0.021654 0.481828
v -0.786516 -0.021690 0.479909
v -0.784383 -0.021719 0.478400
v -0.781983 -0.021741 0.477367
v -0.779420 -0.021755 0.476856
v -0.776807 -0.507716 0.476889
v -0.774258 -0.507712 0.477464
v -0.771884 -0.507698 0.478557
v -0.769790 -0.507676 0.480119
v -0.768065 -0.507647 0.482083
v -0.766787 -0.507611 0.484362
v -0.766011 -0.507571 0.486857
v -0.765771 -0.507529 0.489459
v -0.766076 -0.507485 0.492054
v -0.766915 -0.507442 0.494528
v -0.768250 -0.507402 0.496774
v -0.770023 -0.507367 0.498694
v -0.772156 -0.507337 0.500203
v -0.774556 -0.507315 0.501236
v -0.777119 -0.507302 0.501747
v -0.779732 -0.507297 0.501714
v -0.782281 -0.507302 0.501138
v -0.784655 -0.507315 0.500046
v -0.786750 -0.507337 0.498483
v -0.788474 -0.507367 0.496520
v -0.789752 -0.507402 0.494241
v -0.790528 -0.507442 0.491746
v -0.790769 -0.507485 0.489144
v -0.790463 -0.507529 0.486549
v -0.789624 -0.507571 0.484075
v -0.788289 -0.507611 0.481828
v -0.786516 -0.507647 0.479909
v -0.784383 -0.507676 0.478400
v -0.781983 -0.507698 0.477367
v -0.779420 -0.507712 0.476856
v -0.778590 -0.021515 -0.503337
v -0.775991 -0.021515 -0.503064
v -0.773506 -0.021515 -0.502257
v -0.771243 -0.021515 -0.500950
v -0.769301 -0.021515 -0.499201
v -0.767765 -0.021515 -0.497087
v -0.766702 -0.021515 -0.494700
v -0.766159 -0.021515 -0.492144
v -0.766159 -0.021515 -0.489531
v -0.766702 -0.021515 -0.486974
v -0.767765 -0.021515 -0.484587
v -0.769301 -0.021515 -0.482473
v -0.771243 -0.021515 -0.480724
v -0.773506 -0.021515 -0.479418
v -0.775991 -0.021515 -0.478610
v -0.778590 -0.021515 -0.478337
v -0.781189 -0.021515 -0.478610
v -0.783674 -0.021515 -0.479418
v -0.785937 -0.021515 -0.480724
v -0.787879 -0.021515 -0.482473
v -0.789415 -0.021515 -0.484587
v -0.790478 -0.021515 -0.486974
v -0.791022 -0.021515 -0.489531
v -0.791022 -0.021515 -0.492144
v -0.790478 -0.021515 -0.494700
v -0.789415 -0.021515 -0.497087
v -0.787879 -0.021515 -0.499201
v -0.785937 -0.021515 -0.500950
v -0.783674 -0.021515 -0.502257
v -0.781189 -0.021515 -0.503064
v -0.778590 -0.506225 -0.503337
v -0.775991 -0.506225 -0.503064
v -0.773506 -0.506225 -0.502257
v -0.771243 -0.506225 -0.500950
v -0.769301 -0.506225 -0.499201
v -0.767765 -0.506225 -0.497087
v -0.766702 -0.506225 -0.494700
v -0.766159 -0.506225 -0.492144
v -0.766159 -0.506225 -0.489531
v -0.766702 -0.506225 -0.486974
v -0.767765 -0.506225 -0.484587
v -0.769301 -0.506225 -0.482473
v -0.771243 -0.506225 -0.480724
v -0.773506 -0.506225 -0.479418
v -0.775991 -0.506225 -0.478610
v -0.778590 -0.506225 -0.478337
v -0.781189 -0.506225 -0.478610
v -0.783674 -0.506225 -0.479418
v -0.785938 -0.506225 -0.480724
v -0.787880 -0.506225 -0.482473
v -0.789416 -0.506225 -0.484587
v -0.790478 -0.506225 -0.486974
v -0.791022 -0.506225 -0.489531
v -0.791022 -0.506225 -0.492144
v -0.790478 -0.506225 -0.494700
v -0.789416 -0.506225 -0.497087
v -0.787880 -0.506225 -0.499201
v -0.785938 -0.506225 -0.500950
v -0.783674 -0.506225 -0.502257
v -0.781189 -0.506225 -0.503064
v 0.778048 -0.021502 0.477381
v 0.780647 -0.021502 0.477654
v 0.783132 -0.021502 0.478462
v 0.785395 -0.021502 0.479768
v 0.787337 -0.021502 0.481517
v 0.788873 -0.021502 0.483631
v 0.789936 -0.021502 0.486018
v 0.790479 -0.021502 0.488574
v 0.790479 -0.021502 0.491188
v 0.789936 -0.021502 0.493744
v 0.788873 -0.021502 0.496131
v 0.787337 -0.021502 0.498245
v 0.785395 -0.021502 0.499994
v 0.783132 -0.021502 0.501300
v 0.780647 -0.021502 0.502108
v 0.778048 -0.021502 0.502381
v 0.775449 -0.021502 0.502108
v 0.772964 -0.021502 0.501300
v 0.770700 -0.021502 0.499994
v 0.768758 -0.021502 0.498245
v 0.767222 -0.021502 0.496131
v 0.766160 -0.021502 0.493744
v 0.765616 -0.021502 0.491188
v 0.765616 -0.021502 0.488574
v 0.766160 -0.021502 0.486018
v 0.767222 -0.021502 0.483631
v 0.768758 -0.021502 0.481517
v 0.770700 -0.021502 0.479768
v 0.772964 -0.021502 0.478462
v 0.775449 -0.021502 0.477654
v 0.778048 -0.506933 0.477381
v 0.780647 -0.506933 0.477654
v 0.783132 -0.506933 0.478462
v 0.785395 -0.506933 0.479768
v 0.787337 -0.506933 0.481517
v 0.788873 -0.506933 0.483631
v 0.789936 -0.506933 0.486018
v 0.790479 -0.506933 0.488574
v 0.790479 -0.506933 0.491188
v 0.789936 -0.506933 0.493744
v 0.788873 -0.506933 0.496131
v 0.787337 -0.506933 0.498245
v 0.785395 -0.506933 0.499994
v 0.783132 -0.506933 0.501300
v 0.780647 -0.506933 0.502108
v 0.778048 -0.506933 0.502381
v 0.775449 -0.506933 0.502108
v 0.772963 -0.506933 0.501300
v 0.770700 -0.506933 0.499994
v 0.768758 -0.506933 0.498245
v 0.767222 -0.506933 0.496131
v 0.766159 -0.506933 0.493744
v 0.765616 -0.506933 0.491188
v 0.765616 -0.506933 0.488574
v 0.766159 -0.506933 0.486018
v 0.767222 -0.506933 0.483631
v 0.768758 -0.506933 0.481517
v 0.770700 -0.506933 0.479768
v 0.772963 -0.506933 0.478462
v 0.775449 -0.506933 0.477654
v 0.779295 -0.021577 -0.503284
v 0.781894 -0.021577 -0.503011
v 0.784379 -0.021577 -0.502203
v 0.786642 -0.021577 -0.500897
v 0.788584 -0.021577 -0.499148
v 0.790120 -0.021577 -0.497034
v 0.791183 -0.021577 -0.494647
v 0.791726 -0.021577 -0.492091
v 0.791726 -0.021577 -0.489478
v 0.791183 -0.021577 -0.486921
v 0.790120 -0.021577 -0.484534
v 0.788584 -0.021577 -0.482420
v 0.786642 -0.021577 -0.480671
v 0.784379 -0.021577 -0.479365
v 0.781894 -0.021577 -0.478557
v 0.779295 -0.021577 -0.478284
v 0.776696 -0.021577 -0.478557
v 0.774211 -0.021577 -0.479365
v 0.771948 -0.021577 -0.480671
v 0.770006 -0.021577 -0.482420
v 0.768470 -0.021577 -0.484534
v 0.767407 -0.021577 -0.486921
v 0.766863 -0.021577 -0.489478
v 0.766863 -0.021577 -0.492091
v 0.767407 -0.021577 -0.494647
v 0.768470 -0.021577 -0.497034
v 0.770006 -0.021577 -0.499148
v 0.771948 -0.021577 -0.500897
v 0.774211 -0.021577 -0.502203
v 0.776696 -0.021577 -0.503011
v 0.779295 -0.507748 -0.503284
v 0.781894 -0.507748 -0.503011
v 0.784379 -0.507748 -0.502203
v 0.786642 -0.507748 -0.500897
v 0.788584 -0.507748 -0.499148
v 0.790120 -0.507748 -0.497034
v 0.791183 -0.507748 -0.494647
v 0.791726 -0.507748 -0.492091
v 0.791726 -0.507748 -0.489478
v 0.791183 -0.507748 -0.486921
v 0.790120 -0.507748 -0.484534
v 0.788584 -0.507748 -0.482420
v 0.786642 -0.507748 -0.480671
v 0.784379 -0.507748 -0.479365
v 0.781894 -0.507748 -0.478557
v 0.779295 -0.507748 -0.478284
v 0.776696 -0.507748 -0.478557
v 0.774211 -0.507748 -0.479365
v 0.771948 -0.507748 -0.480671
v 0.770006 -0.507748 -0.482420
v 0.768470 -0.507748 -0.484534
v 0.767407 -0.507748 -0.486921
v 0.766863 -0.507748 -0.489478
v 0.766863 -0.507748 -0.492091
v 0.767407 -0.507748 -0.494647
v 0.768470 -0.507748 -0.497034
v 0.770006 -0.507748 -0.499148
v 0.771948 -0.507748 -0.500897
v 0.774211 -0.507748 -0.502203
v 0.776696 -0.507748 -0.503011
v -0.761175 -0.021550 0.490431
v 0.761175 -0.021550 0.491945
v 0.761175 -0.045720 0.473623
v -0.761175 -0.045719 0.473623
v 0.761175 -0.045720 0.491945
v -0.761175 -0.045719 0.490431
v 0.761175 -0.021550 -0.493053
v -0.761175 -0.021550 -0.490431
v -0.761175 -0.043784 -0.473623
v 0.761175 -0.043784 -0.473623
v -0.761175 -0.043784 -0.490431
v 0.761175 -0.043784 -0.493053
v 0.781962 -0.021550 -0.473623
v 0.781962 -0.021550 0.473623
v 0.761175 -0.042415 -0.473623
v 0.761175 -0.042415 0.473623
v 0.781962 -0.042415 0.473623
v 0.781962 -0.042415 -0.473623
v -0.783155 -0.021550 -0.473623
v -0.783155 -0.021550 0.473623
v -0.761175 -0.043163 0.473623
v -0.761175 -0.043163 -0.473623
v -0.783155 -0.043163 -0.473623
v -0.783155 -0.043163 0.473623
vn -0.0000 -1.0000 -0.0000
vn -1.0000 -0.0000 -0.0000
vn -0.0000 -0.0000 -1.0000
vn -0.0000 -0.0000 1.0000
vn -0.0000 1.0000 -0.0000
vn 1.0000 -0.0000 -0.0000
vn -0.0010 -0.0000 1.0000
vn 0.8597 -0.0000 0.5109
vn -0.5775 -0.0000 -0.8164
vn 0.7346 -0.0000 0.6785
vn -0.3952 -0.0000 -0.9186
vn 0.5775 -0.0000 0.8164
vn -0.1956 -0.0000 -0.9807
vn -0.2202 -0.0000 0.9755
vn 0.3952 -0.0000 0.9186
vn 0.0126 -0.0000 -0.9999
vn -0.4181 -0.0000 0.9084
vn 0.1956 -0.0000 0.9807
vn 0.2202 -0.0000 -0.9755
vn -0.5979 -0.0000 0.8016
vn -0.0126 -0.0000 0.9999
vn 0.4181 -0.0000 -0.9084
vn -0.7514 -0.0000 0.6598
vn 0.5979 -0.0000 -0.8016
vn -0.8722 -0.0000 0.4891
vn 0.7515 -0.0000 -0.6598
vn -0.9548 -0.0000 0.2971
vn 0.8722 -0.0000 -0.4891
vn -0.9958 -0.0000 0.0921
vn 0.9548 -0.0000 -0.2971
vn -0.9931 -0.0000 -0.1170
vn 0.9958 -0.0000 -0.0921
vn -0.9471 -0.0000 -0.3210
vn 0.9931 -0.0000 0.1170
vn -0.8597 -0.0000 -0.5109
vn 0.9471 -0.0000 0.3210
vn -0.7346 -0.0000 -0.6785
vn -0.3090 -0.0000 0.9511
vn 0.3090 -0.0000 0.9511
vn 0.1045 -0.0000 -0.9945
vn -0.5000 -0.0000 0.8660
vn 0.1045 -0.0000 0.9945
vn 0.3090 -0.0000 -0.9511
vn -0.6691 -0.0000 0.7431
vn 0.5000 -0.0000 -0.8660
vn -0.8090 -0.0000 0.5878
vn 0.6691 -0.0000 -0.7431
vn -0.9135 -0.0000 0.4067
vn 0.8090 -0.0000 -0.5878
vn -0.9781 -0.0000 0.2079
vn 0.9135 -0.0000 -0.4067
vn 0.9781 -0.0000 -0.2079
vn -0.9781 -0.0000 -0.2079
vn -0.9135 -0.0000 -0.4067
vn 0.9781 -0.0000 0.2079
vn -0.8090 -0.0000 -0.5878
vn 0.9135 -0.0000 0.4067
vn -0.6691 -0.0000 -0.7431
vn 0.8090 -0.0000 0.5878
vn -0.5000 -0.0000 -0.8660
vn 0.6691 -0.0000 0.7431
vn -0.3090 -0.0000 -0.9511
vn -0.1045 -0.0000 0.9945
vn 0.5000 -0.0000 0.8660
vn -0.1045 -0.0000 -0.9945
vn 0.9782 -0.0000 -0.2079
vn -0.9782 -0.0000 -0.2079
vn 0.9782 -0.0000 0.2079
vn -0.9782 -0.0000 0.2079
vn -0.0017 -0.0000 -1.0000
vt 0.869549 0.500000
vt 0.875000 0.500000
vt 0.875000 0.508284
vt 0.872814 0.508284
vt 0.869549 0.508284
vt 0.869549 0.503496
vt 0.375000 0.741716
vt 0.625000 0.741716
vt 0.625000 0.750000
vt 0.375000 0.750000
vt 0.375000 0.494549
vt 0.625000 0.494549
vt 0.625000 0.500000
vt 0.375000 0.500000
vt 0.630451 0.500000
vt 0.630451 0.504142
vt 0.630451 0.508284
vt 0.626999 0.508284
vt 0.625000 0.508284
vt 0.375000 0.994549
vt 0.625000 0.994549
vt 0.625000 1.000000
vt 0.375000 1.000000
vt 0.369549 0.741716
vt 0.369549 0.750000
vt 0.130451 0.750000
vt 0.130451 0.741716
vt 0.375000 0.250000
vt 0.625000 0.250000
vt 0.625000 0.255451
vt 0.375000 0.255451
vt 0.369549 0.500000
vt 0.375000 0.508284
vt 0.369549 0.508284
vt 0.625000 0.755451
vt 0.375000 0.755451
vt 0.130451 0.508284
vt 0.130451 0.500000
vt 0.375000 0.241716
vt 0.625000 0.241716
vt 0.125000 0.741716
vt 0.125000 0.750000
vt 0.869549 0.746231
vt 0.630451 0.745858
vt 0.869549 0.741716
vt 0.872814 0.741716
vt 0.875000 0.741716
vt 0.875000 0.750000
vt 0.869549 0.750000
vt 0.626999 0.741716
vt 0.630451 0.741716
vt 0.630451 0.750000
vt 0.125000 0.500000
vt 0.125000 0.508284
vt 0.375000 0.008284
vt 0.625000 0.008284
vt 0.375000 0.000000
vt 0.625000 0.000000
vt 0.000000 0.000000
s 0
usemtl Material
f 15/1/1 5/2/1 21/3/1 285/4/1 29/5/1 279/6/1
f 24/7/2 20/8/2 3/9/2 4/10/2
f 9/11/3 16/12/3 1/13/3 2/14/3
f 1/13/1 16/15/1 280/16/1 32/17/1 291/18/1 19/19/1
f 14/20/4 12/21/4 7/22/4 8/23/4
f 26/24/5 13/25/5 14/26/5 28/27/5
f 6/28/3 5/29/3 15/30/3 10/31/3
f 9/32/5 2/14/5 23/33/5 25/34/5
f 4/10/4 3/9/4 11/35/4 13/36/4
f 16/12/3 9/11/3 10/31/3 15/30/3
f 9/32/5 25/34/5 27/37/5 10/38/5
f 12/21/4 14/20/4 13/36/4 11/35/4
f 15/1/1 279/6/1 280/16/1 16/15/1
f 18/39/6 21/40/6 5/29/6 6/28/6
f 17/41/5 28/27/5 14/26/5 8/42/5
f 274/43/7 273/44/7 278/44/7 277/43/7
f 30/45/1 286/46/1 22/47/1 7/48/1 12/49/1 274/43/1
f 26/24/5 24/7/5 4/10/5 13/25/5
f 20/8/1 292/50/1 31/51/1 273/44/1 11/52/1 3/9/1
f 6/53/5 10/38/5 27/37/5 18/54/5
f 2/14/2 1/13/2 19/19/2 23/33/2
f 28/27/5 17/41/5 18/54/5 27/37/5
f 30/45/1 31/51/1 32/17/1 29/5/1
f 26/24/5 28/27/5 27/37/5 25/34/5
f 22/47/1 286/46/1 285/4/1 21/3/1
f 24/7/5 26/24/5 25/34/5 23/33/5
f 20/8/2 24/7/2 23/33/2 19/19/2
f 21/40/6 18/39/6 17/55/6 22/56/6
f 32/17/6 31/51/6 293/51/6 294/17/6
f 8/57/6 7/58/6 22/56/6 17/55/6
f 58/59/8 57/59/8 87/59/8 88/59/8
f 45/59/9 44/59/9 74/59/9 75/59/9
f 59/59/10 58/59/10 88/59/10 89/59/10
f 46/59/11 45/59/11 75/59/11 76/59/11
f 60/59/12 59/59/12 89/59/12 90/59/12
f 47/59/13 46/59/13 76/59/13 77/59/13
f 34/59/14 33/59/14 63/59/14 64/59/14
f 61/59/15 60/59/15 90/59/15 91/59/15
f 48/59/16 47/59/16 77/59/16 78/59/16
f 35/59/17 34/59/17 64/59/17 65/59/17
f 62/59/18 61/59/18 91/59/18 92/59/18
f 49/59/19 48/59/19 78/59/19 79/59/19
f 36/59/20 35/59/20 65/59/20 66/59/20
f 33/59/21 62/59/21 92/59/21 63/59/21
f 50/59/22 49/59/22 79/59/22 80/59/22
f 37/59/23 36/59/23 66/59/23 67/59/23
f 51/59/24 50/59/24 80/59/24 81/59/24
f 38/59/25 37/59/25 67/59/25 68/59/25
f 52/59/26 51/59/26 81/59/26 82/59/26
f 39/59/27 38/59/27 68/59/27 69/59/27
f 53/59/28 52/59/28 82/59/28 83/59/28
f 40/59/29 39/59/29 69/59/29 70/59/29
f 54/59/30 53/59/30 83/59/30 84/59/30
f 41/59/31 40/59/31 70/59/31 71/59/31
f 55/59/32 54/59/32 84/59/32 85/59/32
f 42/59/33 41/59/33 71/59/33 72/59/33
f 56/59/34 55/59/34 85/59/34 86/59/34
f 43/59/35 42/59/35 72/59/35 73/59/35
f 57/59/36 56/59/36 86/59/36 87/59/36
f 44/59/37 43/59/37 73/59/37 74/59/37
f 95/59/38 94/59/38 124/59/38 125/59/38
f 122/59/39 121/59/39 151/59/39 152/59/39
f 109/59/40 108/59/40 138/59/40 139/59/40
f 96/59/41 95/59/41 125/59/41 126/59/41
f 93/59/42 122/59/42 152/59/42 123/59/42
f 110/59/43 109/59/43 139/59/43 140/59/43
f 97/59/44 96/59/44 126/59/44 127/59/44
f 111/59/45 110/59/45 140/59/45 141/59/45
f 98/59/46 97/59/46 127/59/46 128/59/46
f 112/59/47 111/59/47 141/59/47 142/59/47
f 99/59/48 98/59/48 128/59/48 129/59/48
f 113/59/49 112/59/49 142/59/49 143/59/49
f 100/59/50 99/59/50 129/59/50 130/59/50
f 114/59/51 113/59/51 143/59/51 144/59/51
f 101/59/2 100/59/2 130/59/2 131/59/2
f 115/59/52 114/59/52 144/59/52 145/59/52
f 102/59/53 101/59/53 131/59/53 132/59/53
f 116/59/6 115/59/6 145/59/6 146/59/6
f 103/59/54 102/59/54 132/59/54 133/59/54
f 117/59/55 116/59/55 146/59/55 147/59/55
f 104/59/56 103/59/56 133/59/56 134/59/56
f 118/59/57 117/59/57 147/59/57 148/59/57
f 105/59/58 104/59/58 134/59/58 135/59/58
f 119/59/59 118/59/59 148/59/59 149/59/59
f 106/59/60 105/59/60 135/59/60 136/59/60
f 120/59/61 119/59/61 149/59/61 150/59/61
f 107/59/62 106/59/62 136/59/62 137/59/62
f 94/59/63 93/59/63 123/59/63 124/59/63
f 121/59/64 120/59/64 150/59/64 151/59/64
f 108/59/65 107/59/65 137/59/65 138/59/65
f 159/59/48 158/59/48 188/59/48 189/59/48
f 173/59/49 172/59/49 202/59/49 203/59/49
f 160/59/50 159/59/50 189/59/50 190/59/50
f 174/59/51 173/59/51 203/59/51 204/59/51
f 161/59/2 160/59/2 190/59/2 191/59/2
f 175/59/52 174/59/52 204/59/52 205/59/52
f 162/59/53 161/59/53 191/59/53 192/59/53
f 176/59/6 175/59/6 205/59/6 206/59/6
f 163/59/54 162/59/54 192/59/54 193/59/54
f 177/59/55 176/59/55 206/59/55 207/59/55
f 164/59/56 163/59/56 193/59/56 194/59/56
f 178/59/57 177/59/57 207/59/57 208/59/57
f 165/59/58 164/59/58 194/59/58 195/59/58
f 179/59/59 178/59/59 208/59/59 209/59/59
f 166/59/60 165/59/60 195/59/60 196/59/60
f 180/59/61 179/59/61 209/59/61 210/59/61
f 167/59/62 166/59/62 196/59/62 197/59/62
f 154/59/63 153/59/63 183/59/63 184/59/63
f 181/59/64 180/59/64 210/59/64 211/59/64
f 168/59/65 167/59/65 197/59/65 198/59/65
f 155/59/38 154/59/38 184/59/38 185/59/38
f 182/59/39 181/59/39 211/59/39 212/59/39
f 169/59/40 168/59/40 198/59/40 199/59/40
f 156/59/41 155/59/41 185/59/41 186/59/41
f 153/59/42 182/59/42 212/59/42 183/59/42
f 170/59/43 169/59/43 199/59/43 200/59/43
f 157/59/44 156/59/44 186/59/44 187/59/44
f 171/59/45 170/59/45 200/59/45 201/59/45
f 158/59/46 157/59/46 187/59/46 188/59/46
f 172/59/47 171/59/47 201/59/47 202/59/47
f 221/59/2 220/59/2 250/59/2 251/59/2
f 235/59/66 234/59/66 264/59/66 265/59/66
f 222/59/67 221/59/67 251/59/67 252/59/67
f 236/59/6 235/59/6 265/59/6 266/59/6
f 223/59/54 222/59/54 252/59/54 253/59/54
f 237/59/68 236/59/68 266/59/68 267/59/68
f 224/59/56 223/59/56 253/59/56 254/59/56
f 238/59/57 237/59/57 267/59/57 268/59/57
f 225/59/58 224/59/58 254/59/58 255/59/58
f 239/59/59 238/59/59 268/59/59 269/59/59
f 226/59/60 225/59/60 255/59/60 256/59/60
f 240/59/61 239/59/61 269/59/61 270/59/61
f 227/59/62 226/59/62 256/59/62 257/59/62
f 214/59/63 213/59/63 243/59/63 244/59/63
f 241/59/64 240/59/64 270/59/64 271/59/64
f 228/59/65 227/59/65 257/59/65 258/59/65
f 215/59/38 214/59/38 244/59/38 245/59/38
f 242/59/39 241/59/39 271/59/39 272/59/39
f 229/59/40 228/59/40 258/59/40 259/59/40
f 216/59/41 215/59/41 245/59/41 246/59/41
f 213/59/42 242/59/42 272/59/42 243/59/42
f 230/59/43 229/59/43 259/59/43 260/59/43
f 217/59/44 216/59/44 246/59/44 247/59/44
f 231/59/45 230/59/45 260/59/45 261/59/45
f 218/59/46 217/59/46 247/59/46 248/59/46
f 232/59/47 231/59/47 261/59/47 262/59/47
f 219/59/48 218/59/48 248/59/48 249/59/48
f 233/59/49 232/59/49 262/59/49 263/59/49
f 220/59/69 219/59/69 249/59/69 250/59/69
f 234/59/51 233/59/51 263/59/51 264/59/51
f 273/44/1 274/43/1 12/49/1 11/52/1
f 275/45/1 277/43/1 278/44/1 276/51/1
f 30/45/6 274/43/6 277/43/6 275/45/6
f 273/44/2 31/51/2 276/51/2 278/44/2
f 31/51/3 30/45/3 275/45/3 276/51/3
f 32/17/2 280/16/2 283/16/2 281/17/2
f 283/16/1 284/6/1 282/5/1 281/17/1
f 29/5/4 32/17/4 281/17/4 282/5/4
f 280/16/70 279/6/70 284/6/70 283/16/70
f 279/6/6 29/5/6 282/5/6 284/6/6
f 285/4/6 286/46/6 289/46/6 290/4/6
f 290/4/1 289/46/1 288/45/1 287/5/1
f 30/45/2 29/5/2 287/5/2 288/45/2
f 29/5/3 285/4/3 290/4/3 287/5/3
f 286/46/4 30/45/4 288/45/4 289/46/4
f 293/51/1 296/50/1 295/18/1 294/17/1
f 291/18/1 292/50/1 20/8/1 19/19/1
f 292/50/2 291/18/2 295/18/2 296/50/2
f 31/51/4 292/50/4 296/50/4 293/51/4
f 291/18/3 32/17/3 294/17/3 295/18/3
